<?xml version="1.0" standalone="no"?>
<!DOCTYPE svg PUBLIC "-//W3C//DTD SVG 20010904//EN"
 "http://www.w3.org/TR/2001/REC-SVG-20010904/DTD/svg10.dtd">
<svg version="1.0" xmlns="http://www.w3.org/2000/svg"
 width="690.000000pt" height="690.000000pt" viewBox="0 0 690.000000 690.000000"
 preserveAspectRatio="xMidYMid meet">
<metadata>
Created by potrace 1.14, written by Peter Selinger 2001-2017
</metadata>
<g transform="translate(0.000000,690.000000) scale(0.100000,-0.100000)"
fill="#000000" stroke="none">
<path d="M2956 5392 c-2 -2 -57 -4 -123 -6 -65 -1 -123 -5 -130 -9 -6 -4 -14
-3 -18 3 -4 6 -11 8 -16 4 -9 -5 -129 -16 -206 -18 -24 -1 -43 -3 -43 -6 0 -3
-21 -7 -48 -8 -79 -6 -87 -7 -99 -15 -8 -5 -13 -3 -13 4 0 8 -4 8 -12 2 -21
-16 -58 -22 -58 -10 0 9 -2 9 -8 0 -6 -10 -91 -29 -119 -26 -7 0 -13 -4 -13
-10 0 -6 -3 -8 -6 -4 -3 3 -18 1 -33 -5 -14 -5 -33 -11 -41 -13 -49 -13 -162
-66 -186 -89 -6 -6 -20 -18 -30 -27 -45 -38 -104 -135 -119 -194 -7 -29 -35
-147 -40 -170 -2 -11 -7 -38 -10 -60 -4 -22 -8 -53 -11 -70 -3 -16 -6 -44 -8
-62 -2 -17 -7 -36 -10 -42 -4 -6 -1 -11 6 -11 8 0 9 -3 3 -8 -6 -4 -10 -23
-10 -42 1 -19 -2 -39 -4 -45 -3 -5 -7 -28 -8 -50 -7 -111 -14 -204 -18 -235
-11 -74 -11 -91 -3 -96 5 -3 5 -11 1 -17 -5 -7 -9 -56 -8 -109 0 -54 -3 -98
-7 -98 -4 0 -3 -13 2 -30 5 -18 5 -30 -1 -30 -5 0 -9 -5 -9 -11 0 -5 6 -7 13
-3 9 6 9 4 1 -7 -8 -10 -10 -120 -8 -379 5 -475 7 -550 17 -550 4 0 3 -8 -2
-18 -6 -11 -6 -24 0 -35 7 -12 6 -17 -1 -17 -6 0 -8 -5 -3 -12 8 -14 11 -35
14 -125 1 -35 6 -63 12 -63 5 0 5 -5 -2 -13 -6 -8 -8 -16 -6 -19 3 -3 8 -32
10 -64 6 -83 13 -133 20 -144 3 -6 1 -10 -5 -10 -7 0 -8 -6 0 -19 5 -11 11
-40 12 -65 2 -25 5 -46 8 -46 3 0 6 -10 6 -22 3 -52 11 -98 17 -104 4 -4 7
-22 7 -40 0 -18 4 -35 10 -39 5 -3 7 -12 3 -20 -3 -8 -1 -15 4 -15 5 0 10 -6
11 -12 1 -28 12 -62 22 -72 5 -5 10 -18 10 -28 0 -10 7 -21 15 -24 8 -4 15
-11 15 -18 0 -23 101 -113 137 -122 13 -4 20 -11 16 -18 -3 -6 -3 -8 2 -4 4 4
25 -2 46 -13 22 -11 39 -16 39 -12 0 4 5 2 12 -5 7 -7 22 -12 35 -12 13 0 23
-4 23 -8 0 -4 8 -8 18 -8 26 -1 93 -14 103 -20 5 -2 21 -7 36 -9 16 -2 46 -7
68 -11 22 -4 59 -7 82 -8 24 -1 43 -4 43 -7 0 -3 21 -7 48 -8 67 -4 99 -8 111
-16 6 -3 11 -1 11 5 0 6 4 9 9 6 5 -4 34 -8 65 -10 30 -3 60 -7 66 -11 5 -3
10 -1 10 6 0 8 4 8 13 1 12 -11 1392 -9 1507 2 30 2 84 8 120 11 36 4 88 8
115 11 83 6 128 11 172 18 23 4 57 9 75 12 18 2 47 7 63 10 17 2 44 6 61 8 17
2 35 5 40 8 12 7 77 19 85 15 3 -1 13 4 22 12 10 7 17 11 17 7 0 -4 13 0 30 9
16 8 31 14 32 13 2 -1 24 10 49 25 48 28 120 99 132 130 3 9 10 17 15 17 4 0
8 10 9 22 1 11 6 24 10 27 13 9 43 93 37 102 -3 5 0 9 6 9 7 0 10 6 7 13 -2 6
0 20 5 30 9 18 16 46 23 97 2 14 4 25 5 25 1 0 4 14 6 30 8 45 12 70 14 70 1
0 3 20 5 45 2 25 5 56 8 70 3 14 8 57 11 95 3 39 9 103 12 143 3 41 7 122 8
181 2 59 5 112 9 118 4 5 3 13 0 17 -10 10 -12 36 -4 36 12 0 8 74 -4 82 -6 5
-6 8 1 8 8 0 11 119 11 415 0 300 -3 413 -11 408 -8 -5 -8 -3 0 8 5 8 9 32 7
54 -1 22 -4 107 -7 189 -3 82 -7 163 -10 180 -4 28 -19 203 -19 234 0 6 -3 12
-6 12 -3 0 -6 17 -7 38 -2 66 -9 127 -15 132 -4 3 -8 21 -10 40 -2 19 -7 41
-12 48 -5 6 -7 12 -4 12 3 0 1 17 -4 38 -6 20 -11 42 -12 49 -2 7 -6 15 -9 19
-4 3 -4 12 -1 20 3 8 1 14 -4 14 -5 0 -15 20 -22 45 -7 25 -17 45 -23 45 -5 0
-7 4 -4 9 3 5 -1 14 -9 21 -8 7 -15 17 -15 22 0 5 -6 16 -12 24 -12 15 -22 24
-72 69 -19 18 -82 52 -141 77 -21 9 -51 16 -100 24 -16 3 -37 8 -45 11 -8 3
-24 7 -35 8 -11 2 -38 6 -60 10 -78 14 -90 16 -122 17 -18 1 -33 4 -33 7 0 3
-21 7 -48 7 -26 1 -72 4 -102 8 -47 5 -108 10 -250 20 -14 1 -30 5 -37 9 -6 4
-14 3 -18 -3 -4 -6 -11 -7 -17 -4 -17 11 -88 11 -88 1 0 -5 -6 -5 -12 1 -7 5
-52 9 -100 8 -54 -1 -88 3 -88 9 0 5 -5 3 -10 -5 -5 -8 -10 -10 -10 -4 0 7
-134 10 -425 10 -234 0 -427 -2 -429 -4z"/>
</g>
</svg>
